<?xml version="1.0" encoding="utf-8"?>
<!-- Generator: Adobe Illustrator 19.0.0, SVG Export Plug-In . SVG Version: 6.00 Build 0)  -->
<svg version="1.1" id="Layer_1" xmlns="http://www.w3.org/2000/svg" xmlns:xlink="http://www.w3.org/1999/xlink" x="0px" y="0px"
	 viewBox="0 0 500 500" style="enable-background:new 0 0 500 500;" xml:space="preserve">
<style type="text/css">
	.st0{fill:#BFD73F;}
	.st1{fill:#82C341;}
	.st2{fill:#262626;}
	.st3{fill:#81C341;}
	.st4{fill:#191919;}
	.st5{fill:#8DC63F;}
</style>
<g id="XMLID_6_">
	<path id="XMLID_2_" class="st0" d="M87.7,77.5c-0.5-19,16.3-36.2,35.3-35.7c57.8,0,115.2,0,172.6,0c17.6,0,33.4,14,35.3,31.6
		c1.4,19.4,0,39.3,0.5,58.8c0,22.1,2.3,44.3-2.3,66c-3.6,15.4-19,24-33.4,24c-39.3,1.8-78.6,0-117.5,0.5c-11.8,0-24-0.5-35.7,0.5
		c-19,16.7-35.7,35.7-54.2,52.9C86.8,209.9,87.2,143.4,87.7,77.5z"/>
</g>
<g id="XMLID_4_">
	<path id="XMLID_1_" class="st1" d="M331.3,132.1c18.1,0.5,35.7-1.8,53.8,1.4c17.6,3.6,28.9,21.7,27.6,38.9
		c0,64.6,0.5,128.8-0.5,193.4c-19-16.7-34.8-36.2-54.2-52.4c-47.9-1.8-96.3,0.5-144.6-0.9c-17.6,0.5-33.9-14-35.3-31.2
		c-1.8-19.4,0-39.3-0.5-58.8c39.3-0.5,78.6,1.4,117.5-0.5c14.9,0,30.3-8.6,33.4-24C333.6,176.4,331.3,154.3,331.3,132.1z"/>
</g>
<g id="XMLID_3_">
	<path id="XMLID_40_" class="st2" d="M127.5,387.6H105l-3.7,10.8H89.3l20.3-56.6h13.2l20.3,56.6h-12L127.5,387.6z M116.2,354.9
		l-8.2,23.6h16.3L116.2,354.9z"/>
	<path id="XMLID_43_" class="st2" d="M150.8,341.9h11.3v56.5h-11.3V341.9z"/>
	<path id="XMLID_45_" class="st2" d="M199.5,398.9c-15.9,0-29-12-29-29c0-16.9,13-28.9,29-28.9c16.1,0,28.9,12,28.9,28.9
		C228.4,386.9,215.5,398.9,199.5,398.9z M199.5,388.8c10.2,0,17.2-7.4,17.2-18.9s-7-18.7-17.2-18.7c-10.3,0-17.3,7.2-17.3,18.7
		S189.2,388.8,199.5,388.8z"/>
</g>
<g id="XMLID_7_">
	<path id="XMLID_24_" class="st3" d="M111.6,420.8c9.3,0,16.9,5,19.7,13.6h-9.7c-2-4-5.6-6-10.1-6c-7.3,0-12.5,5.3-12.5,13.9
		c0,8.5,5.2,13.9,12.5,13.9c4.5,0,8.1-2,10.1-6.1h9.7c-2.8,8.6-10.4,13.6-19.7,13.6c-12.1,0-21.2-8.8-21.2-21.4
		C90.3,429.7,99.5,420.8,111.6,420.8z"/>
	<path id="XMLID_26_" class="st3" d="M153.2,463.7c-9.6,0-16.9-6.7-16.9-17.2c0-10.5,7.5-17.2,17.1-17.2s17.1,6.7,17.1,17.2
		C170.6,457,162.9,463.7,153.2,463.7z M153.2,456.4c4.4,0,8.7-3.2,8.7-9.8c0-6.7-4.1-9.8-8.6-9.8c-4.4,0-8.5,3.2-8.5,9.8
		C144.9,453.2,148.7,456.4,153.2,456.4z"/>
	<path id="XMLID_29_" class="st3" d="M200,444.8c0-5.3-2.9-8.2-7.4-8.2c-4.6,0-7.5,2.9-7.5,8.2v18.4h-8.4V430h8.4v4.1
		c2.2-2.8,5.8-4.6,10-4.6c7.7,0,13.3,5,13.3,14.2v19.5H200V444.8z"/>
	<path id="XMLID_31_" class="st3" d="M217.7,436.9h-4V430h4v-8.2h8.5v8.2h7.4v6.9h-7.4v16.1c0,2.2,0.9,3.2,3.5,3.2h3.9v7.1h-5.3
		c-6.4,0-10.6-2.7-10.6-10.3V436.9z"/>
	<path id="XMLID_33_" class="st3" d="M252.7,429.4c5.3,0,9,2.5,11,5.3V430h8.5v33.2h-8.5v-4.9c-2,2.9-5.8,5.4-11,5.4
		c-8.4,0-15.1-6.9-15.1-17.3S244.2,429.4,252.7,429.4z M254.9,436.8c-4.5,0-8.8,3.4-8.8,9.7s4.3,9.9,8.8,9.9c4.6,0,8.8-3.5,8.8-9.8
		S259.5,436.8,254.9,436.8z"/>
	<path id="XMLID_36_" class="st3" d="M294.6,429.4c8.3,0,13.9,4.3,15.7,11.8h-9.1c-1-2.8-3.2-4.6-6.7-4.6c-4.7,0-7.8,3.5-7.8,10
		s3.1,10,7.8,10c3.5,0,5.6-1.6,6.7-4.6h9.1c-1.8,7.1-7.4,11.8-15.7,11.8c-9.6,0-16.4-6.7-16.4-17.2S285,429.4,294.6,429.4z"/>
	<path id="XMLID_38_" class="st3" d="M317.8,436.9h-4V430h4v-8.2h8.5v8.2h7.4v6.9h-7.4v16.1c0,2.2,0.9,3.2,3.5,3.2h3.9v7.1h-5.3
		c-6.4,0-10.6-2.7-10.6-10.3V436.9z"/>
</g>
<g id="XMLID_8_">
	<path id="XMLID_10_" class="st4" d="M355.3,427.7v28.2h11v5.3h-17.8v-33.5H355.3z"/>
	<path id="XMLID_12_" class="st4" d="M369.9,427.5c0-2.2,1.7-3.9,4.1-3.9c2.4,0,4.1,1.7,4.1,3.9c0,2.2-1.8,3.9-4.1,3.9
		C371.6,431.4,369.9,429.7,369.9,427.5z M370.6,434.6h6.7v26.6h-6.7V434.6z"/>
	<path id="XMLID_15_" class="st4" d="M385,440.1h-3.2v-5.5h3.2V428h6.8v6.6h6v5.5h-6V453c0,1.8,0.7,2.5,2.8,2.5h3.1v5.7h-4.2
		c-5.1,0-8.5-2.2-8.5-8.3V440.1z"/>
	<path id="XMLID_18_" class="st4" d="M414.2,461.6c-7.7,0-13.3-5.4-13.3-13.7c0-8.4,5.5-13.7,13.3-13.7c7.7,0,13.1,5.2,13.1,13.2
		c0,0.9,0,1.7-0.2,2.6h-19.4c0.3,3.9,3,6.1,6.4,6.1c2.9,0,4.5-1.4,5.3-3.2h7.2C425.2,457.7,420.8,461.6,414.2,461.6z M407.7,445.4
		h12.6c-0.1-3.5-2.9-5.7-6.3-5.7C410.8,439.7,408.2,441.7,407.7,445.4z"/>
</g>
<g id="XMLID_5_">
	<path id="XMLID_21_" class="st5" d="M498,2v496H2V2H498 M500,0H0v500h500V0L500,0z"/>
</g>
<g id="XMLID_9_">
</g>
<g id="XMLID_48_">
</g>
<g id="XMLID_49_">
</g>
<g id="XMLID_50_">
</g>
<g id="XMLID_51_">
</g>
<g id="XMLID_52_">
</g>
</svg>
